<?xml version="1.0" standalone="no"?>
<!DOCTYPE svg PUBLIC "-//W3C//DTD SVG 20010904//EN"
 "http://www.w3.org/TR/2001/REC-SVG-20010904/DTD/svg10.dtd">
<svg version="1.0" xmlns="http://www.w3.org/2000/svg"
 width="1536.000000pt" height="1536.000000pt" viewBox="0 0 1536.000000 1536.000000"
 preserveAspectRatio="xMidYMid meet">

<g transform="translate(0.000000,1536.000000) scale(0.100000,-0.100000)"
fill="#000000" stroke="none">
<path d="M6442 12003 l3 -1548 333 -3 332 -2 0 1550 0 1550 -335 0 -335 0 2
-1547z"/>
<path d="M8308 12750 c-520 -49 -828 -320 -828 -729 0 -219 88 -385 267 -502
121 -79 276 -127 640 -200 382 -76 436 -106 436 -240 0 -136 -120 -209 -344
-209 -228 0 -351 82 -405 268 -3 9 -76 12 -325 12 l-322 0 5 -67 c15 -196 151
-399 346 -516 208 -125 441 -175 767 -164 336 12 580 98 750 265 109 108 163
215 186 373 33 226 -50 445 -216 567 -147 109 -288 155 -765 252 -303 61 -370
99 -370 209 0 142 127 220 340 208 174 -9 275 -70 320 -196 l23 -61 308 0 309
0 0 28 c0 54 -40 187 -82 272 -33 69 -58 101 -127 170 -100 98 -192 155 -326
199 -163 54 -400 79 -587 61z"/>
<path d="M3985 12683 c8 -16 51 -84 95 -153 44 -69 119 -186 166 -260 47 -74
157 -247 244 -384 189 -298 187 -293 175 -312 -6 -7 -51 -78 -101 -156 -50
-79 -205 -321 -344 -538 -139 -217 -255 -403 -258 -413 -4 -16 16 -17 354 -15
l358 3 113 185 c62 102 152 249 199 328 48 78 90 142 95 142 7 0 57 -80 343
-540 l71 -115 350 -3 c192 -1 355 0 362 2 8 4 -11 42 -55 111 -89 139 -380
590 -508 785 -55 85 -113 175 -127 200 l-26 45 146 230 c80 127 220 347 311
490 90 143 182 287 203 321 22 33 39 63 39 67 0 4 -160 7 -355 7 l-354 0 -12
-22 c-23 -45 -371 -598 -379 -603 -7 -4 -44 52 -309 475 l-95 150 -358 0 -359
0 16 -27z"/>
<path d="M9570 12703 c0 -3 31 -54 68 -112 38 -58 143 -222 233 -363 90 -142
196 -309 236 -370 40 -62 93 -148 118 -190 l47 -78 -262 -411 c-368 -577 -450
-709 -450 -720 0 -6 135 -8 357 -7 l358 3 197 325 c108 179 201 326 205 327 7
2 59 -79 303 -472 51 -82 100 -158 108 -167 14 -17 44 -18 368 -18 194 0 355
3 357 8 2 4 -35 66 -82 138 -89 136 -256 393 -356 549 -32 50 -95 146 -139
215 -114 175 -146 226 -146 233 0 3 58 97 128 209 70 112 223 354 340 539 116
185 214 344 218 353 6 15 -21 16 -347 14 l-353 -3 -114 -185 c-63 -102 -149
-241 -191 -310 -43 -69 -81 -124 -87 -124 -5 1 -97 142 -204 313 l-195 311
-357 0 c-197 0 -358 -3 -358 -7z"/>
<path d="M7088 9861 c-24 -26 -144 -157 -268 -290 -124 -134 -226 -246 -228
-251 -2 -4 39 -45 91 -91 83 -74 696 -632 972 -884 55 -51 269 -246 475 -435
206 -188 418 -383 472 -431 l96 -89 669 -2 668 -3 -3 -297 c-2 -168 0 -298 5
-298 9 0 209 119 653 390 129 78 278 168 330 200 52 31 190 114 305 185 116
70 252 153 302 184 71 43 90 58 80 67 -14 13 -48 34 -877 536 -168 102 -413
250 -545 330 l-240 146 -3 -304 -2 -304 -508 0 -507 0 -245 223 c-135 122
-371 335 -525 472 -154 138 -329 295 -390 350 -60 56 -227 206 -370 335 -143
128 -279 251 -302 272 -24 21 -47 38 -52 38 -5 0 -29 -22 -53 -49z"/>
<path d="M5420 8778 c-47 -28 -123 -74 -170 -103 -47 -29 -182 -111 -300 -182
-680 -412 -1097 -666 -1108 -677 -16 -16 22 -41 473 -311 39 -23 197 -119 352
-213 656 -398 835 -503 841 -497 4 4 8 138 9 298 l3 292 502 3 503 2 110 -102
c130 -119 337 -312 450 -418 44 -41 224 -207 400 -369 176 -162 345 -317 375
-346 53 -49 274 -253 390 -358 30 -28 80 -75 111 -104 l57 -54 158 169 c310
328 404 430 403 439 -1 4 -36 40 -78 78 -260 239 -583 536 -761 700 -113 105
-257 237 -320 295 -128 117 -154 141 -355 326 -252 231 -559 512 -595 543
l-35 31 -657 0 -658 0 -1 118 c-1 64 -1 196 0 292 1 96 -2 180 -6 187 -6 8
-33 -3 -93 -39z"/>
<path d="M3862 5443 l3 -288 348 -3 347 -2 0 290 0 290 -350 0 -350 0 2 -287z"/>
<path d="M5820 4903 c-199 -12 -347 -46 -485 -112 -208 -100 -325 -224 -391
-416 -24 -70 -28 -95 -28 -205 -1 -186 43 -307 151 -415 142 -141 284 -197
758 -295 275 -57 302 -65 368 -103 81 -48 101 -160 44 -246 -71 -106 -326
-141 -524 -71 -97 34 -165 105 -188 198 l-12 47 -328 3 -328 2 6 -57 c13 -124
72 -256 161 -365 167 -202 452 -317 826 -334 483 -22 868 136 1014 416 50 95
66 161 73 285 10 202 -39 337 -165 463 -130 129 -306 196 -767 292 -309 64
-338 73 -388 119 -35 33 -41 44 -45 93 -8 96 38 158 146 199 50 18 73 20 187
17 118 -3 136 -6 187 -31 84 -41 132 -105 164 -214 3 -10 75 -13 319 -13 293
0 315 1 315 18 -1 33 -30 155 -50 211 -86 229 -293 401 -565 469 -136 34 -325
53 -455 45z"/>
<path d="M8115 4885 c-301 -47 -556 -192 -718 -408 -152 -203 -223 -419 -234
-713 -6 -177 7 -294 53 -452 83 -287 275 -517 544 -652 321 -162 806 -170
1138 -19 458 207 707 751 606 1326 -76 435 -368 772 -767 883 -176 49 -439 64
-622 35z m336 -525 c133 -25 252 -120 317 -253 106 -218 107 -555 2 -772 -65
-135 -139 -203 -267 -246 -56 -18 -81 -21 -182 -17 -104 4 -123 8 -184 36
-129 59 -221 182 -269 359 -18 65 -21 106 -21 248 -1 189 14 266 73 390 93
194 306 297 531 255z"/>
<path d="M11045 4893 c-187 -26 -368 -118 -472 -241 l-53 -62 0 130 0 130
-330 0 -330 0 0 -1135 0 -1135 333 2 332 3 6 710 c6 760 5 746 59 861 72 150
232 223 430 197 183 -24 291 -123 329 -301 7 -36 11 -274 11 -740 0 -378 3
-697 6 -709 l6 -23 334 0 334 0 0 714 c0 817 -7 927 -66 1104 -112 328 -388
506 -782 501 -65 -1 -130 -4 -147 -6z"/>
<path d="M3875 4838 c-3 -7 -6 -539 -7 -1183 -3 -1262 0 -1199 -56 -1274 -40
-54 -100 -75 -217 -76 -55 0 -126 3 -157 8 l-58 7 0 -274 0 -274 73 -14 c47
-8 148 -13 292 -12 211 0 224 1 310 28 299 91 440 276 484 631 7 61 11 470 11
1268 l0 1177 -335 0 c-259 0 -337 -3 -340 -12z"/>
</g>
</svg>
